<?xml version="1.0" standalone="no"?>
<!DOCTYPE svg PUBLIC "-//W3C//DTD SVG 20010904//EN"
 "http://www.w3.org/TR/2001/REC-SVG-20010904/DTD/svg10.dtd">
<svg version="1.0" xmlns="http://www.w3.org/2000/svg"
 width="1080.000000pt" height="1080.000000pt" viewBox="0 0 1080.000000 1080.000000"
 preserveAspectRatio="xMidYMid meet">

<g transform="translate(0.000000,1080.000000) scale(0.100000,-0.100000)"
fill="#000000" stroke="none">
<path d="M5854 5772 c-9 -6 -84 -243 -84 -264 0 -25 19 1 45 59 35 80 85 139
140 164 49 22 103 25 111 5 5 -13 -159 -646 -172 -668 -3 -4 -34 -8 -70 -8
-50 0 -64 -3 -64 -15 0 -13 26 -15 175 -15 149 0 175 2 175 15 0 11 -13 15
-54 15 -30 0 -57 4 -60 9 -10 15 165 655 183 669 26 22 99 9 130 -22 24 -25
26 -32 26 -121 0 -57 4 -95 10 -95 11 0 75 267 67 275 -8 8 -546 5 -558 -3z"/>
<path d="M7947 5773 c-17 -16 -3 -23 49 -23 48 0 55 -2 50 -17 -25 -86 -186
-686 -186 -693 0 -6 13 -10 30 -10 27 0 31 4 46 58 9 31 24 84 33 117 l17 60
43 3 c58 4 74 -11 67 -62 -20 -141 -20 -141 9 -164 56 -44 109 -14 159 91 39
80 41 87 27 87 -5 0 -17 -21 -27 -47 -22 -57 -69 -113 -95 -113 -22 0 -25 37
-9 105 12 54 3 83 -32 105 -24 14 -26 19 -14 29 8 7 29 48 46 91 25 63 37 80
52 80 18 0 19 -4 14 -36 -11 -55 23 -83 58 -48 37 36 6 124 -43 124 -35 0 -76
-45 -95 -106 -23 -74 -62 -114 -110 -114 -25 0 -36 5 -36 15 0 8 27 113 60
233 33 121 60 224 60 231 0 12 -161 16 -173 4z"/>
<path d="M3465 5683 c-14 -49 -32 -108 -40 -132 -25 -75 -4 -67 36 15 44 92
60 113 113 148 28 19 52 26 87 26 26 0 50 -3 52 -7 4 -6 -83 -342 -162 -630
l-12 -43 -54 0 c-29 0 -60 -3 -69 -6 -45 -17 1 -24 165 -24 140 0 180 3 177
13 -3 7 -27 13 -61 15 -44 2 -57 7 -57 19 0 20 156 609 170 641 8 18 17 22 58
22 93 0 130 -58 117 -184 -10 -104 8 -74 45 74 16 68 30 128 30 132 0 5 -128
8 -284 8 l-285 0 -26 -87z"/>
<path d="M4255 5734 c-39 -40 14 -110 60 -80 23 16 32 61 14 82 -15 19 -54 18
-74 -2z"/>
<path d="M5015 5496 c-40 -17 -84 -68 -135 -156 -22 -38 -42 -70 -44 -70 -2 0
3 28 11 63 25 105 1 167 -63 167 -43 0 -74 -32 -143 -146 -29 -49 -50 -78 -47
-64 4 14 9 55 13 92 5 53 2 72 -11 93 -21 31 -63 33 -100 4 -28 -22 -98 -157
-89 -172 3 -6 21 22 40 62 19 39 46 79 60 88 24 16 26 16 38 0 9 -12 10 -30 4
-64 -8 -39 -80 -310 -94 -350 -3 -9 7 -13 30 -13 32 0 34 2 50 57 36 124 158
345 209 379 32 20 56 6 56 -33 0 -19 -60 -260 -96 -385 -4 -15 1 -18 28 -18
33 0 35 2 47 51 16 62 117 268 160 327 17 23 48 50 67 60 34 16 36 16 50 -3
17 -23 15 -29 -43 -170 -54 -128 -64 -216 -29 -254 43 -48 107 -13 159 87 39
74 42 82 29 82 -5 0 -21 -27 -37 -60 -35 -72 -65 -103 -97 -98 -35 5 -29 45
27 173 38 89 47 122 48 173 2 58 0 66 -26 88 -32 28 -32 28 -72 10z"/>
<path d="M5461 5495 c-58 -18 -126 -85 -162 -160 -49 -101 -38 -226 24 -283
64 -59 172 -30 234 64 19 29 33 59 31 66 -3 7 -21 -13 -41 -44 -40 -64 -69
-86 -118 -94 -25 -4 -41 0 -62 16 -24 19 -27 28 -27 85 0 95 9 111 67 119 63
8 144 47 171 80 46 59 36 127 -23 151 -40 18 -38 18 -94 0z m87 -27 c18 -18
14 -79 -7 -114 -22 -36 -67 -59 -134 -69 l-49 -7 7 34 c11 53 57 130 90 150
34 21 76 23 93 6z"/>
<path d="M6534 5500 c-30 -12 -74 -67 -101 -128 -26 -59 -27 -62 -14 -62 4 0
16 20 25 44 23 59 77 121 99 113 10 -4 17 -17 17 -33 0 -22 -64 -277 -96 -387
-5 -16 -1 -18 26 -15 31 3 33 6 71 113 48 138 125 292 156 312 30 20 40 11 25
-22 -16 -34 -15 -40 4 -60 33 -32 84 5 84 61 0 56 -52 88 -96 59 -29 -18 -76
-81 -94 -125 -18 -42 -31 -37 -24 9 7 47 -11 107 -36 121 -21 11 -18 11 -46 0z"/>
<path d="M7056 5495 c-145 -52 -247 -331 -159 -435 54 -64 137 -47 200 42 l38
53 3 -35 c12 -152 124 -122 196 54 19 45 19 46 7 46 -4 0 -16 -19 -25 -43 -21
-55 -72 -117 -97 -117 -30 0 -24 53 25 234 58 213 57 201 22 201 -24 0 -31 -6
-38 -30 -19 -61 -19 -61 -33 -29 -14 35 -60 74 -84 74 -9 -1 -34 -7 -55 -15z
m90 -23 c39 -26 44 -99 13 -198 -47 -152 -127 -249 -190 -229 -70 22 -19 290
77 404 26 31 72 42 100 23z"/>
<path d="M7620 5495 c-49 -22 -117 -91 -147 -150 -38 -72 -44 -185 -14 -243
63 -124 213 -100 290 46 27 51 2 43 -32 -10 -43 -68 -74 -90 -128 -92 -32 0
-45 5 -60 23 -48 59 1 283 81 375 29 33 37 37 74 34 49 -4 59 -28 26 -63 -42
-45 -6 -104 44 -72 22 15 26 25 26 62 0 84 -77 127 -160 90z"/>
<path d="M8586 5495 c-53 -19 -130 -97 -157 -159 -27 -62 -36 -160 -19 -210
26 -79 101 -120 175 -96 58 19 144 119 132 153 -2 7 -11 -3 -21 -20 -48 -94
-126 -139 -185 -108 -37 19 -48 64 -35 144 l9 55 62 13 c108 21 178 70 189
130 9 49 -3 81 -36 98 -35 18 -63 18 -114 0z m102 -63 c6 -81 -52 -136 -153
-144 -38 -3 -40 -1 -37 22 10 70 74 158 124 171 42 11 63 -5 66 -49z"/>
<path d="M8934 5500 c-12 -4 -31 -20 -42 -35 -29 -37 -74 -134 -69 -148 2 -7
19 19 36 56 34 70 69 104 97 93 22 -8 16 -44 -41 -252 -25 -89 -45 -167 -45
-173 0 -6 13 -11 29 -11 27 0 30 4 66 108 66 191 143 332 182 332 11 0 13 -5
7 -17 -4 -10 -8 -31 -8 -48 -1 -27 3 -30 31 -33 57 -6 82 61 42 112 -41 53
-92 27 -153 -78 -21 -36 -41 -66 -43 -66 -3 0 -4 15 -3 33 4 70 -1 98 -20 117
-22 22 -33 23 -66 10z"/>
<path d="M4142 5472 c-40 -38 -103 -162 -82 -162 5 0 18 21 30 47 34 77 68
115 98 111 41 -5 38 -32 -13 -152 -66 -156 -76 -232 -34 -282 18 -22 64 -17
96 10 42 36 109 166 85 166 -5 0 -17 -19 -26 -43 -23 -60 -72 -117 -102 -117
-24 0 -29 11 -25 52 1 10 23 64 48 120 38 86 46 114 47 169 1 53 -3 71 -18 88
-27 29 -68 27 -104 -7z"/>
</g>
</svg>
